<svg xmlns="http://www.w3.org/2000/svg" viewBox="0 0 64 64">
    <symbol id="icon-ukraine" viewBox="0 0 32 32">
        <path
            d="M16 32c8.837 0 16-7.163 16-16s-7.163-16-16-16c-8.837 0-16 7.163-16 16s7.163 16 16 16z"></path>
        <path d="M0 16c0-8.836 7.163-16 16-16s16 7.163 16 16z"></path>
    </symbol>

    <symbol id="icon-Vector_blue" viewBox="0 0 64 32">
        <path d="M0 32c0-17.673 14.327-32 32-32s32 14.327 32 32z"></path>
    </symbol>

    <symbol id="icon-accent" viewBox="0 0 13 32">
        <path stroke-linejoin="round" stroke-linecap="round" stroke-miterlimit="4"
            stroke-width="3.7647"
            d="M1.882 1.882h1.882c2.636 0 3.953 0 4.96 0.513 0.885 0.451 1.605 1.171 2.057 2.057 0.513 1.007 0.513 2.324 0.513 4.96v13.176c0 2.635 0 3.953-0.513 4.96-0.451 0.885-1.171 1.605-2.057 2.056-1.007 0.513-2.324 0.513-4.96 0.513h-1.882"></path>
    </symbol>

    <symbol id="icon-arrow" viewBox="0 0 35 32">
        <path stroke-linejoin="round" stroke-linecap="round" stroke-miterlimit="4"
            stroke-width="5.8182"
            d="M19.879 2.909l12.121 12.121M32 15.030l-12.121 12.121M32 15.030h-29.091"></path>
    </symbol>

    <symbol id="icon-close" viewBox="0 0 32 32">
        <path stroke-linejoin="round" stroke-linecap="round" stroke-miterlimit="4"
            stroke-width="2.5" d="M24 8l-16 16"></path>
        <path stroke-linejoin="round" stroke-linecap="round" stroke-miterlimit="4"
            stroke-width="2.5" d="M8 8l16 16"></path>
    </symbol>

    <symbol id="icon-user" viewBox="0 0 32 32">
        <path
            d="M16 0c2.122 0 4.157 0.843 5.657 2.343s2.343 3.535 2.343 5.657-0.843 4.157-2.343 5.657c-1.5 1.5-3.535 2.343-5.657 2.343s-4.157-0.843-5.657-2.343c-1.5-1.5-2.343-3.535-2.343-5.657s0.843-4.157 2.343-5.657c1.5-1.5 3.535-2.343 5.657-2.343zM16 20c8.84 0 16 3.58 16 8v4h-32v-4c0-4.42 7.16-8 16-8z"></path>
    </symbol>

    <symbol id="icon-eye-off" viewBox="0 0 32 32">
        <path stroke-linejoin="round" stroke-linecap="round" stroke-miterlimit="4"
            stroke-width="3.2"
            d="M23.92 23.92c-2.279 1.737-5.055 2.7-7.92 2.747-9.333 0-14.667-10.667-14.667-10.667 1.659-3.091 3.959-5.791 6.747-7.92M13.2 5.653c0.918-0.215 1.857-0.322 2.8-0.32 9.333 0 14.667 10.667 14.667 10.667-0.809 1.514-1.775 2.94-2.88 4.253M18.827 18.827c-0.366 0.393-0.808 0.708-1.299 0.927s-1.020 0.336-1.557 0.346c-0.537 0.009-1.071-0.089-1.569-0.291s-0.95-0.501-1.33-0.88c-0.38-0.38-0.679-0.832-0.88-1.33s-0.3-1.032-0.29-1.569c0.009-0.537 0.127-1.067 0.346-1.558s0.534-0.932 0.927-1.298"></path>
        <path stroke-linejoin="round" stroke-linecap="round" stroke-miterlimit="4"
            stroke-width="3.2" d="M1.333 1.333l29.333 29.333"></path>
    </symbol>

    <symbol id="icon-eye" viewBox="0 0 32 32">
        <path stroke-linejoin="round" stroke-linecap="round" stroke-miterlimit="4"
            stroke-width="3.2"
            d="M1.333 16c0 0 5.333-10.667 14.667-10.667s14.667 10.667 14.667 10.667c0 0-5.333 10.667-14.667 10.667s-14.667-10.667-14.667-10.667z"></path>
        <path stroke-linejoin="round" stroke-linecap="round" stroke-miterlimit="4"
            stroke-width="3.2"
            d="M16 20c2.209 0 4-1.791 4-4s-1.791-4-4-4c-2.209 0-4 1.791-4 4s1.791 4 4 4z"></path>
    </symbol>

    <symbol id="icon-Star" viewBox="0 0 34 32">
        <path stroke-linejoin="miter" stroke-linecap="butt" stroke-miterlimit="4"
            stroke-width="2.7429"
            d="M20.319 9.431c0.364 0.689 1.027 1.171 1.795 1.304l8.685 1.5-6.143 6.324c-0.543 0.559-0.796 1.34-0.685 2.112l1.254 8.726-7.911-3.891c-0.699-0.344-1.519-0.344-2.219 0l-7.913 3.891 1.257-8.726c0.111-0.772-0.142-1.553-0.685-2.112l-6.145-6.324 8.688-1.5c0.768-0.133 1.431-0.615 1.795-1.304l4.114-7.797 4.114 7.797z"></path>
    </symbol>

    <symbol id="icon-book" viewBox="0 0 32 32">
        <path stroke-linejoin="round" stroke-linecap="round" stroke-miterlimit="4" stroke-width="3"
            d="M29.333 8.267c0-1.493 0-2.24-0.291-2.811-0.256-0.502-0.664-0.91-1.165-1.165-0.571-0.291-1.317-0.291-2.811-0.291h-0.533c-2.987 0-4.48 0-5.621 0.581-1.004 0.511-1.819 1.327-2.331 2.331-0.581 1.141-0.581 2.634-0.581 5.621v15.467l0.133-0.2c0.926-1.389 1.389-2.084 2.001-2.587 0.542-0.445 1.166-0.779 1.837-0.983 0.758-0.23 1.593-0.23 3.262-0.23h1.833c1.494 0 2.24 0 2.811-0.291 0.502-0.256 0.91-0.664 1.165-1.165 0.291-0.57 0.291-1.317 0.291-2.811v-11.467z"></path>
        <path stroke-linejoin="round" stroke-linecap="round" stroke-miterlimit="4" stroke-width="3"
            d="M2.667 8.267c0-1.493 0-2.24 0.291-2.811 0.256-0.502 0.664-0.91 1.165-1.165 0.57-0.291 1.317-0.291 2.811-0.291h0.533c2.987 0 4.48 0 5.621 0.581 1.004 0.511 1.819 1.327 2.331 2.331 0.581 1.141 0.581 2.634 0.581 5.621v15.467l-0.133-0.2c-0.926-1.389-1.389-2.084-2.001-2.587-0.542-0.445-1.166-0.779-1.837-0.983-0.758-0.23-1.593-0.23-3.262-0.23h-1.833c-1.493 0-2.24 0-2.811-0.291-0.502-0.256-0.91-0.664-1.165-1.165-0.291-0.57-0.291-1.317-0.291-2.811v-11.467z"></path>
    </symbol>

    <symbol id="icon-heart" viewBox="0 0 37 32">
        <path
            d="M18.286 11.968l-2.043-4.089c-0.507-1.013-1.387-2.469-2.633-3.646-1.225-1.159-2.693-1.947-4.466-1.947-3.831 0-6.857 3.031-6.857 6.674 0 2.768 1.266 4.722 4.27 7.703 0.77 0.763 1.648 1.589 2.619 2.498 2.533 2.377 5.682 5.335 9.111 9.289 3.429-3.954 6.578-6.912 9.111-9.289 0.971-0.91 1.851-1.737 2.619-2.498 3.003-2.981 4.27-4.935 4.27-7.703 0-3.643-3.026-6.674-6.857-6.674-1.776 0-3.241 0.789-4.466 1.947-1.246 1.177-2.126 2.633-2.633 3.646l-2.043 4.089zM19.182 30.921c-0.11 0.13-0.247 0.235-0.402 0.307s-0.323 0.109-0.494 0.109-0.339-0.037-0.494-0.109c-0.155-0.072-0.292-0.177-0.402-0.307-3.659-4.347-6.971-7.456-9.698-10.014-4.72-4.432-7.691-7.218-7.691-11.947 0-4.949 4.091-8.96 9.143-8.96 3.657 0 6.215 2.4 7.781 4.59 0.594 0.834 1.047 1.637 1.362 2.267 0.396-0.789 0.851-1.547 1.362-2.267 1.566-2.192 4.123-4.59 7.781-4.59 5.051 0 9.143 4.011 9.143 8.96 0 4.729-2.971 7.515-7.691 11.947-2.727 2.56-6.039 5.671-9.698 10.014z"></path>
    </symbol>

</svg>